<svg fill="none" height="160" viewBox="0 0 40 160" width="40" xmlns="http://www.w3.org/2000/svg"><g fill="#2568ef"><path d="m16.225 64.2167c-3.5333 0-5.8667-3.6-5.8667-7.5334 0-3.9333 2-6.6666 4.1334-7.9333l2.1333 3.3333c-1.7333 1-2.6667 2.6667-2.7333 4.6-.0667 1.6667.5333 2.9334 1.6666 3.3334 1.0667.3333 2.1334-.2 2.6667-1.4667.4667-1.1333 1.9333-4.2 2.2-4.8667 1.1333-2.3333 2.5333-3.9333 5.2667-3.9333 3.5333-.0667 5.9333 3.1333 5.9333 7.0667 0 3.3333-1.5333 5.7333-3.7333 7.1333l-1.8667-3.3333c1.1333-.6667 2.2667-2 2.2667-3.7334 0-2-.9334-3.0666-2-3.3333-1.2-.2-2.0667.6667-2.6 2-.4.8667-1.8 3.8-2.2667 4.8667-1 2.0666-2.5333 3.8-5.2 3.8z"/><path d="m11.6916 77.2167c-.6666-1.0666-1.1333-2.5333-1.1333-3.8666 0-2.8667 2.1333-4.4 4.8-4.4h7.1333v-3.2667h2.8667v3.3333h4.4667v3.7334h-4.4667v4.3333h-2.8667v-4.2667h-6.9333c-1.2667 0-1.7333.6-1.7333 1.7334-.0667.5333.2 1.2.4 1.5333z"/><path d="m16.7583 91.0167v-9.0667c-1.6666.5333-2.8666 2.1333-2.8666 3.7333 0 1.5334.6666 2.7334 1.3333 3.3334.2.1333.4.3333.4.3333l-2.2667 2.6667c-1.4-1.1334-2.8-3.4-2.8-6.2667 0-4.1333 3.4-7.5333 7.6-7.5333s7.6 3.4666 7.6 7.5333c0 2.3333-1.1333 4.7333-3.0666 6.0667-1.2667.9333-2.6 1.3333-4.1334 1.3333-.9333-.0667-1.8-.7333-1.8-2.1333zm2.6667-9.1334v7.4c1.2667-.3333 2.8-1.4666 2.8-3.6.0667-1.8-1.2-3.2666-2.8-3.8z"/><path d="m18.9583 109.75h-8.0666v-3.667h8c1.8666 0 3.3333-1.533 3.3333-3.4 0-1.866-1.4-3.3996-3.5333-3.3996h-7.7334v-3.6667h14.4v3.4h-1.6666c1.4 1.1333 2 2.8003 2 4.4663 0 3.8-2.9334 6.267-6.7334 6.267z"/><path d="m13.3583 126.75c-1.8-1.4-2.9333-3.733-2.9333-6.2 0-4.267 3.4667-7.867 7.6667-7.867s7.6666 3.6 7.6666 7.867c0 2.467-1.1333 4.733-2.8666 6.133l-2.0667-3c.8667-.733 1.3333-1.933 1.3333-3.133 0-2.267-1.8-4.067-4.1333-4.067-2.2667 0-4.1333 1.8-4.1333 4.067 0 1.267.5333 2.533 1.4666 3.267z"/><path d="m29.1583 128.683c1.2 0 2.2 1.067 2.2 2.4 0 1.267-1 2.334-2.2 2.334s-2.2-1.067-2.2-2.334c0-1.333 1-2.4 2.2-2.4zm-3.8.467v3.667h-14.4666v-3.667z"/><path d="m13.825 142.15-2.4667 1c-.6-1-.8666-2.133-.8666-2.8 0-2.333 1.6666-3.667 4.0666-3.667h16.8v3.734h-16.5333c-.4 0-.6667.2-.8667.4-.1333.266-.2666.6-.1333 1.333z"/><path d="m25.3583 159.15h-14.4666v-3.4h1.5333c-1.2-1.067-2-2.733-2-4.533 0-4.267 3.4667-7.534 7.6667-7.534 4.2666 0 7.6666 3.267 7.6666 7.534 0 1.8-.8 3.533-1.9333 4.533h1.5333zm-8.8666-3.733h3.2666c1.4667-.667 2.5334-2.134 2.5334-3.8 0-.867-.2667-1.734-.7334-2.4-.7333-1.067-2-1.8-3.4-1.8s-2.6666.733-3.4 1.8c-.4666.666-.7333 1.466-.7333 2.4-.0667 1.666 1 3.133 2.4667 3.8z"/></g><path d="m0 0v40h40v-40zm20 30.6667c-5.9333 0-10.73334-4.8-10.73334-10.7334 0-5.9333 4.80004-10.7333 10.73334-10.7333s10.7333 4.8 10.7333 10.7333c0 5.9334-4.8 10.7334-10.7333 10.7334z" fill="#6f6"/><path d="m29.0667 30.7333c5.9278 0 10.7333-4.8054 10.7333-10.7333s-4.8055-10.73334-10.7333-10.73334c-5.9279 0-10.7334 4.80544-10.7334 10.73334s4.8055 10.7333 10.7334 10.7333z" fill="#2568ef"/><path d="m29.0666 9.26666c-1.6666 0-3.2666.4-4.6 1.06664 3.6 1.7334 6.0667 5.4 6.0667 9.6667s-2.4667 7.9333-6.0667 9.6667c1.4.6666 3 1.0666 4.6 1.0666 5.9334 0 10.7334-4.8 10.7334-10.7333s-4.8667-10.73334-10.7334-10.73334z" fill="#0f6860"/></svg>